HIERARCHY
ROOT Hips
{
	OFFSET 0.00000 0.00000 0.00000
	CHANNELS 6 Xposition Yposition Zposition Zrotation Yrotation Xrotation 
	JOINT LHipJoint
	{
		OFFSET 0 0 0
		CHANNELS 3 Zrotation Yrotation Xrotation
		JOINT LeftHip
		{
			OFFSET 1.37590 -1.78394 0.89329
			CHANNELS 3 Zrotation Yrotation Xrotation
			JOINT LeftKnee
			{
				OFFSET 2.47928 -6.81178 0.00000
				CHANNELS 3 Zrotation Yrotation Xrotation
				JOINT LeftAnkle
				{
					OFFSET 2.63345 -7.23535 0.00000
					CHANNELS 3 Zrotation Yrotation Xrotation
					JOINT LeftToe
					{
						OFFSET 0.23938 -0.65768 2.27012
						CHANNELS 3 Zrotation Yrotation Xrotation
						End Site
						{
							OFFSET 0.00000 -0.00000 1.18363
						}
					}
				}
			}
		}
	}
	JOINT RHipJoint
	{
		OFFSET 0 0 0
		CHANNELS 3 Zrotation Yrotation Xrotation
		JOINT RightHip
		{
			OFFSET -1.33617 -1.78394 0.89329
			CHANNELS 3 Zrotation Yrotation Xrotation
			JOINT RightKnee
			{
				OFFSET -2.56922 -7.05888 0.00000
				CHANNELS 3 Zrotation Yrotation Xrotation
				JOINT RightAnkle
				{
					OFFSET -2.56568 -7.04915 0.00000
					CHANNELS 3 Zrotation Yrotation Xrotation
					JOINT RightToe
					{
						OFFSET -0.27533 -0.75646 2.18105
						CHANNELS 3 Zrotation Yrotation Xrotation
						End Site
						{
							OFFSET -0.00000 -0.00000 1.15233
						}
					}
				}
			}
		}
	}
	JOINT lowerback
	{
		OFFSET 0 0 0
		CHANNELS 3 Zrotation Yrotation Xrotation
		JOINT Chest
		{
			OFFSET 0.06190 2.15152 -0.00935
			CHANNELS 3 Zrotation Yrotation Xrotation
			JOINT Chest2
			{
				OFFSET 0.06334 2.15332 0.00872
				CHANNELS 3 Zrotation Yrotation Xrotation
				JOINT lowerneck
				{
					OFFSET 0 0 0
					CHANNELS 3 Zrotation Yrotation Xrotation
					JOINT Neck
					{
						OFFSET -0.04202 1.66908 0.23524
						CHANNELS 3 Zrotation Yrotation Xrotation
						JOINT Head
						{
							OFFSET 0.07510 1.69357 -0.24440
							CHANNELS 3 Zrotation Yrotation Xrotation
							End Site
							{
								OFFSET 0.02556 1.71719 -0.11000
							}
						}
					}
				}
				JOINT LeftCollar
				{
					OFFSET 0 0 0
					CHANNELS 3 Zrotation Yrotation Xrotation
					JOINT LeftShoulder
					{
						OFFSET 3.67168 1.26306 -0.41342
CHANNELS 3 Zrotation Xrotation Yrotation
						JOINT LeftElbow
						{
OFFSET 0 -4.685100 -0.000000
CHANNELS 3 Zrotation Xrotation Yrotation
							JOINT LeftWrist
							{
OFFSET 0 -3.396260 -0.000000
CHANNELS 3 Zrotation Xrotation Yrotation
								JOINT lhand
								{
									OFFSET 0 0 0
CHANNELS 3 Zrotation Xrotation Yrotation
									JOINT LFingers
									{
OFFSET 0 -0.486080 -0.000000
CHANNELS 3 Zrotation Xrotation Yrotation
										End Site
										{
OFFSET 0 -0.391890 -0.000000
										}
									}
								}
								JOINT LThumb
								{
OFFSET 0 0.000000 0.000000
CHANNELS 3 Zrotation Xrotation Yrotation
									End Site
									{
OFFSET 0 -0.397870 0.397870
									}
								}
							}
						}
					}
				}
				JOINT RightCollar
				{
					OFFSET 0 0 0
					CHANNELS 3 Zrotation Yrotation Xrotation
					JOINT RightShoulder
					{
						OFFSET -3.04136 1.42992 -0.76390
CHANNELS 3 Zrotation Xrotation Yrotation
						JOINT RightElbow
						{
OFFSET 0 -5.555760 -0.000000
CHANNELS 3 Zrotation Xrotation Yrotation
							JOINT RightWrist
							{
OFFSET 0 -3.327740 -0.000000
CHANNELS 3 Zrotation Xrotation Yrotation
								JOINT rhand
								{
									OFFSET 0 0 0
CHANNELS 3 Zrotation Xrotation Yrotation
									JOINT RFingers
									{
OFFSET 0 -0.507630 -0.000000
CHANNELS 3 Zrotation Xrotation Yrotation
										End Site
										{
OFFSET 0 -0.409260 -0.000000
										}
									}
								}
								JOINT RThumb
								{
OFFSET 0 0.000000 0.000000
CHANNELS 3 Zrotation Xrotation Yrotation
									End Site
									{
OFFSET 0 -0.415510 0.415510
									}
								}
							}
						}
					}
				}
			}
		}
	}
}
MOTION
Frames: 11
Frame Time: 0.008333333333333333
-1.851277 17.911466 6.903695 -135.155245 -78.359917 145.292182 0.000000 0.000000 0.000000 0.171709 -9.631374 -30.785476 1.391034 7.460224 21.086888 0.042880 6.041094 -9.704654 0.706566 -5.372503 -14.974131 0.000000 0.000000 0.000000 32.259079 7.433172 -3.807406 -1.078588 -6.601034 18.538685 -0.548888 -0.823067 -14.317348 -0.098792 -2.022283 5.567386 2.698324 -2.026990 1.424521 2.614326 -2.630342 -1.395754 1.262639 -1.353467 -2.229662 -4.416957 1.572446 -18.294657 10.630851 1.228196 14.642722 4.392265 1.327117 7.412702 0.000000 0.000000 0.000000 29.702888 -53.036377 -15.210480 38.032848 -46.856031 16.990923 14.287881 5.365131 -26.077153 0.000000 0.000000 0.000000 -7.125000 0.000000 0.000000 -16.870680 55.969067 4.633239 0.000000 0.000000 0.000000 -3.419157 2.168166 8.150485 -14.089326 -22.862219 -2.862775 -16.831785 26.715012 25.107887 0.000000 0.000000 0.000000 7.125000 0.000000 0.000000 13.756215 55.533118 -3.605562
-2.043031 17.894332 6.930973 -136.628935 -78.059207 146.702863 0.000000 0.000000 0.000000 0.392741 -9.960604 -30.634170 1.252867 7.095720 19.999422 0.011863 6.408684 -9.443744 0.705390 -5.368205 -14.961636 0.000000 0.000000 0.000000 32.054690 7.324521 -3.315328 -1.128069 -6.745999 18.965059 -0.568889 -0.620441 -14.487505 -0.066752 -1.664413 4.579132 2.835088 -1.968233 1.319761 2.688557 -2.556042 -1.360933 1.254893 -1.318398 -2.137744 -4.270055 1.655407 -18.286261 10.356039 1.357969 14.638148 4.288883 1.372907 7.401618 0.000000 0.000000 0.000000 28.929160 -51.167546 -16.958153 39.568020 -47.810147 18.119013 14.954116 7.433141 -26.163787 0.000000 0.000000 0.000000 -7.125000 0.000000 0.000000 -16.241554 56.187022 4.540678 0.000000 0.000000 0.000000 -3.283113 2.079208 8.409327 -14.218091 -23.045659 -2.912948 -16.570110 26.492940 24.801880 0.000000 0.000000 0.000000 7.125000 0.000000 0.000000 13.869044 55.179663 -3.516042
-2.236413 17.876814 6.958303 -137.921656 -77.786932 147.918372 0.000000 0.000000 0.000000 0.573639 -10.292612 -30.470405 1.139288 6.777862 19.059168 -0.018135 6.750237 -9.168489 0.699425 -5.345722 -14.897239 0.000000 0.000000 0.000000 31.827773 7.202142 -2.882225 -1.190606 -6.923823 19.489889 -0.585198 -0.426469 -14.613640 -0.040473 -1.293991 3.558034 2.959757 -1.918946 1.220896 2.759807 -2.495159 -1.321105 1.251571 -1.289706 -2.043393 -4.115848 1.733638 -18.270688 10.092280 1.476969 14.626422 4.186732 1.414466 7.388555 0.000000 0.000000 0.000000 28.054084 -49.223022 -18.735567 41.053724 -48.680206 19.227492 15.553330 9.475706 -26.200589 0.000000 0.000000 0.000000 -7.125000 0.000000 0.000000 -15.649102 56.344781 4.429497 0.000000 0.000000 0.000000 -3.151127 1.993180 8.654517 -14.345650 -23.226676 -2.963118 -16.312726 26.285252 24.506349 0.000000 0.000000 0.000000 7.125000 0.000000 0.000000 13.983823 54.838180 -3.428860
-2.431464 17.858899 6.985744 -139.074344 -77.541593 148.979295 0.000000 0.000000 0.000000 0.704414 -10.609571 -30.295720 1.047393 6.507453 18.264456 -0.046100 7.047572 -8.877025 0.688016 -5.302937 -14.774564 0.000000 0.000000 0.000000 31.577954 7.065310 -2.510367 -1.267180 -7.134468 20.114716 -0.596699 -0.240796 -14.685473 -0.020526 -0.912279 2.507612 3.071652 -1.877146 1.127954 2.826989 -2.444733 -1.276928 1.251887 -1.265841 -1.947501 -3.956773 1.806153 -18.248311 9.840755 1.584195 14.610745 4.086473 1.451556 7.374538 0.000000 0.000000 0.000000 27.088919 -47.216043 -20.526196 42.451650 -49.454403 20.283946 16.088084 11.508948 -26.185381 0.000000 0.000000 0.000000 -7.125000 0.000000 0.000000 -15.090949 56.439771 4.301212 0.000000 0.000000 0.000000 -3.022748 1.913397 8.881420 -14.471827 -23.405141 -3.013005 -16.065848 26.091798 24.219870 0.000000 0.000000 0.000000 7.125000 0.000000 0.000000 14.092953 54.508721 -3.342341
-2.627985 17.840965 7.013251 -140.138170 -77.320706 149.937035 0.000000 0.000000 0.000000 0.778145 -10.900606 -30.111829 0.973785 6.281734 17.604340 -0.071657 7.300186 -8.568658 0.671798 -5.241155 -14.597649 0.000000 0.000000 0.000000 31.303105 6.916338 -2.199006 -1.358162 -7.376118 20.834959 -0.602594 -0.061611 -14.692437 -0.007152 -0.526282 1.446176 3.169139 -1.840628 1.039886 2.888529 -2.401904 -1.228654 1.254926 -1.245334 -1.849807 -3.795851 1.872587 -18.222017 9.602444 1.679839 14.593864 3.989136 1.484112 7.360758 0.000000 0.000000 0.000000 26.052811 -45.162461 -22.313246 43.726644 -50.127151 21.257514 16.566425 13.543500 -26.122082 0.000000 0.000000 0.000000 -7.125000 0.000000 0.000000 -14.562850 56.476446 4.159229 0.000000 0.000000 0.000000 -2.897453 1.841089 9.090244 -14.596913 -23.581557 -3.062912 -15.831568 25.910047 23.948803 0.000000 0.000000 0.000000 7.125000 0.000000 0.000000 14.197556 54.197471 -3.259246
-2.825905 17.823183 7.040911 -141.143332 -77.125650 150.821858 0.000000 0.000000 0.000000 0.785215 -11.156879 -29.921788 0.916948 6.101021 17.077742 -0.094079 7.499881 -8.242813 0.651490 -5.163069 -14.374307 0.000000 0.000000 0.000000 30.999153 6.756683 -1.952653 -1.464873 -7.648752 21.652416 -0.601746 0.105963 -14.623191 -0.000699 -0.151147 0.415227 3.248423 -1.808597 0.957538 2.942890 -2.365443 -1.177833 1.261178 -1.227644 -1.752152 -3.635753 1.932252 -18.193451 9.379031 1.763001 14.578960 3.895744 1.511964 7.348422 0.000000 0.000000 0.000000 24.956356 -43.072540 -24.083034 44.837809 -50.688316 22.113338 16.989080 15.580039 -26.000632 0.000000 0.000000 0.000000 -7.125000 0.000000 0.000000 -14.060219 56.444426 4.000699 0.000000 0.000000 0.000000 -2.774757 1.778017 9.279519 -14.720389 -23.755148 -3.112482 -15.615440 25.739921 23.694282 0.000000 0.000000 0.000000 7.125000 0.000000 0.000000 14.292525 53.906555 -3.179415
-3.025333 17.805725 7.068503 -142.114389 -76.959510 151.658462 0.000000 0.000000 0.000000 0.708902 -11.365184 -29.725194 0.876787 5.969461 16.695902 -0.112384 7.632238 -7.900030 0.627633 -5.069269 -14.106373 0.000000 0.000000 0.000000 30.659229 6.587970 -1.782168 -1.590953 -7.955558 22.579666 -0.592462 0.253415 -14.458672 -0.001046 0.184228 -0.506111 3.304305 -1.780315 0.882346 2.986859 -2.333933 -1.125757 1.270301 -1.211971 -1.656734 -3.477927 1.983960 -18.161960 9.172695 1.831971 14.568463 3.807081 1.534275 7.338226 0.000000 0.000000 0.000000 23.804048 -40.953061 -25.817250 45.718093 -51.115085 22.796502 17.351012 17.612363 -25.810008 0.000000 0.000000 0.000000 -7.125000 0.000000 0.000000 -13.584554 56.331198 3.824387 0.000000 0.000000 0.000000 -2.653867 1.727495 9.445500 -14.841087 -23.924274 -3.161233 -15.421806 25.584382 23.465620 0.000000 0.000000 0.000000 7.125000 0.000000 0.000000 14.377700 53.646134 -3.106610
-3.225829 17.788870 7.096196 -143.079925 -76.819154 152.475274 0.000000 0.000000 0.000000 0.550238 -11.523601 -29.520518 0.850613 5.882126 16.442702 -0.126255 7.698983 -7.544762 0.600916 -4.961990 -13.800175 0.000000 0.000000 0.000000 30.284711 6.415519 -1.684401 -1.736871 -8.293690 23.610461 -0.574335 0.368991 -14.196082 -0.005660 0.475878 -1.307563 3.336420 -1.754706 0.815651 3.020064 -2.305812 -1.073965 1.281995 -1.197508 -1.565808 -3.324056 2.027871 -18.129993 8.981949 1.887645 14.565953 3.723273 1.551413 7.331681 0.000000 0.000000 0.000000 22.610408 -38.815382 -27.497184 46.339094 -51.407557 23.280846 17.659372 19.637991 -25.561201 0.000000 0.000000 0.000000 -7.125000 0.000000 0.000000 -13.136311 56.148324 3.636735 0.000000 0.000000 0.000000 -2.535368 1.691087 9.591893 -14.958624 -24.088367 -3.209016 -15.250150 25.439858 23.258751 0.000000 0.000000 0.000000 7.125000 0.000000 0.000000 14.451708 53.411460 -3.039399
-3.427330 17.772926 7.123819 -144.052811 -76.701923 153.287177 0.000000 0.000000 0.000000 0.312406 -11.632254 -29.306806 0.836614 5.834843 16.305888 -0.135877 7.702388 -7.182405 0.571922 -4.842839 -13.460920 0.000000 0.000000 0.000000 29.877986 6.243558 -1.657430 -1.903521 -8.660750 24.740676 -0.547522 0.435362 -13.835477 -0.012737 0.723487 -1.988263 3.345270 -1.730579 0.755483 3.042413 -2.279560 -1.021111 1.295954 -1.183675 -1.477135 -3.176278 2.063927 -18.098972 8.805878 1.930805 14.570247 3.644251 1.563706 7.328311 0.000000 0.000000 0.000000 21.382773 -36.673762 -29.105792 46.680477 -51.565627 23.547927 17.914727 21.651691 -25.259707 0.000000 0.000000 0.000000 -7.125000 0.000000 0.000000 -12.719790 55.901067 3.442018 0.000000 0.000000 0.000000 -2.419366 1.665759 9.719403 -15.072136 -24.246438 -3.255492 -15.099577 25.305661 23.072651 0.000000 0.000000 0.000000 7.125000 0.000000 0.000000 14.514687 53.201430 -2.977804
-3.629685 17.758084 7.151386 -145.040154 -76.606043 154.100997 0.000000 0.000000 0.000000 -0.002078 -11.693185 -29.080117 0.833533 5.824221 16.275342 -0.141441 7.647487 -6.816933 0.540652 -4.710862 -13.085779 0.000000 0.000000 0.000000 29.440504 6.072564 -1.703109 -2.092102 -9.055149 25.968173 -0.513377 0.439963 -13.391438 -0.021404 0.944034 -2.594984 3.332459 -1.707460 0.702982 3.053699 -2.254139 -0.968920 1.310999 -1.169859 -1.392950 -3.036574 2.092211 -18.068606 8.644742 1.962040 14.582633 3.570604 1.571183 7.328471 0.000000 0.000000 0.000000 20.126528 -34.536910 -30.625242 46.717222 -51.582576 23.576647 18.122206 23.652156 -24.910395 0.000000 0.000000 0.000000 -7.125000 0.000000 0.000000 -12.333629 55.595218 3.242836 0.000000 0.000000 0.000000 -2.305656 1.651971 9.824365 -15.179865 -24.396092 -3.299843 -14.969003 25.184436 22.906088 0.000000 0.000000 0.000000 7.125000 0.000000 0.000000 14.567218 53.014539 -2.921624
-3.832772 17.744695 7.178688 -146.049010 -76.531205 154.924805 0.000000 0.000000 0.000000 -0.397885 -11.701250 -28.835361 0.841618 5.851786 16.354889 -0.142583 7.529879 -6.456324 0.506680 -4.562576 -12.665029 0.000000 0.000000 0.000000 28.971232 5.902058 -1.835533 -2.307815 -9.478365 27.304739 -0.472209 0.369474 -12.856579 -0.029902 1.115513 -3.066678 3.296975 -1.684937 0.657890 3.052933 -2.229038 -0.916480 1.326548 -1.155948 -1.312331 -2.908587 2.111918 -18.040629 8.500139 1.981062 14.603753 3.503397 1.573735 7.332372 0.000000 0.000000 0.000000 18.847724 -32.418815 -32.018194 46.390030 -51.431227 23.320638 18.270327 25.625842 -24.514125 0.000000 0.000000 0.000000 -7.125000 0.000000 0.000000 -11.992622 55.228919 3.044243 0.000000 0.000000 0.000000 -2.194714 1.647104 9.902403 -15.279034 -24.533362 -3.340950 -14.857403 25.080796 22.760603 0.000000 0.000000 0.000000 7.125000 0.000000 0.000000 14.610958 52.851955 -2.871917
